<?xml version="1.0" standalone="no"?>
<!DOCTYPE svg PUBLIC "-//W3C//DTD SVG 20010904//EN"
 "http://www.w3.org/TR/2001/REC-SVG-20010904/DTD/svg10.dtd">
<svg version="1.0" xmlns="http://www.w3.org/2000/svg"
 width="512.000000pt" height="512.000000pt" viewBox="0 0 512.000000 512.000000"
 preserveAspectRatio="xMidYMid meet">

<g transform="translate(0.000000,512.000000) scale(0.100000,-0.100000)"
fill="#000000" stroke="none">
<path d="M193 4709 c-84 -15 -146 -68 -178 -153 -20 -53 -16 -125 11 -178 9
-18 120 -137 246 -264 l229 -231 -73 -6 c-92 -7 -149 -29 -189 -75 -60 -68
-64 -88 -64 -297 l0 -190 31 -55 c22 -38 46 -64 79 -85 48 -30 51 -30 207 -33
87 -2 158 -7 158 -11 0 -4 72 -455 160 -1002 180 -1116 165 -1052 264 -1114
l49 -30 949 -3 948 -2 -21 52 c-93 232 -105 506 -34 754 25 86 104 248 160
327 26 38 83 106 126 151 l79 84 50 373 c28 206 53 384 55 397 l5 22 261 0
260 0 -6 -32 c-16 -87 -83 -513 -81 -515 1 -1 33 3 71 8 73 11 240 5 327 -11
28 -6 53 -8 56 -5 4 3 91 524 92 548 0 4 66 7 148 7 165 0 201 10 259 70 59
60 65 93 61 316 -3 198 -3 199 -31 241 -48 75 -129 112 -241 113 l-50 0 236
238 c212 214 237 242 253 291 38 115 -18 240 -129 286 -50 21 -132 21 -182 0
-28 -11 -208 -185 -644 -619 -667 -666 -642 -645 -754 -633 -118 12 -184 73
-206 189 -11 57 -47 110 -94 139 -29 18 -56 19 -510 19 -472 0 -479 0 -517
-22 -41 -23 -80 -88 -99 -163 -23 -92 -93 -152 -192 -162 -119 -12 -79 -45
-753 627 -335 334 -620 613 -632 619 -37 19 -105 28 -150 20z m1442 -1601 c7
-39 225 -1648 225 -1660 0 -4 -108 -8 -239 -8 l-239 0 -6 38 c-118 731 -266
1654 -266 1657 0 3 117 5 260 5 l259 0 6 -32z m1215 5 c0 -41 -109 -1581 -116
-1630 l-5 -43 -194 0 -194 0 -5 33 c-7 39 -116 1588 -116 1635 l0 32 315 0
315 0 0 -27z"/>
<path d="M3980 2394 c-14 -3 -56 -12 -95 -21 -306 -72 -566 -295 -687 -591
-52 -129 -72 -232 -72 -377 0 -277 95 -507 288 -701 220 -219 487 -317 796
-292 333 26 635 228 795 531 252 477 68 1080 -407 1337 -154 82 -262 110 -448
115 -80 2 -156 2 -170 -1z m227 -312 c58 -41 63 -67 63 -306 l0 -216 213 0
c239 0 273 -8 318 -71 31 -44 33 -126 3 -166 -50 -67 -53 -68 -305 -71 l-229
-3 0 -217 c0 -187 -2 -222 -18 -252 -52 -104 -191 -108 -266 -7 -20 27 -21 44
-24 252 l-4 224 -223 3 c-209 3 -225 4 -252 24 -95 71 -87 209 17 262 42 21
56 22 252 22 l208 0 0 193 c0 203 7 254 38 296 45 62 146 78 209 33z"/>
</g>
</svg>
