<?xml version="1.0" standalone="no"?>
<!DOCTYPE svg PUBLIC "-//W3C//DTD SVG 20010904//EN"
 "http://www.w3.org/TR/2001/REC-SVG-20010904/DTD/svg10.dtd">
<svg version="1.0" xmlns="http://www.w3.org/2000/svg"
 width="980.000000pt" height="838.000000pt" viewBox="0 0 980.000000 838.000000"
 preserveAspectRatio="xMidYMid meet">

<g transform="translate(0.000000,838.000000) scale(0.100000,-0.100000)"
fill="#000000" stroke="none">
<path d="M186 8364 c-70 -22 -149 -103 -170 -174 -21 -71 -20 -118 4 -182 21
-58 81 -123 140 -154 33 -18 73 -19 655 -22 l621 -3 402 -1392 c222 -766 420
-1450 442 -1522 21 -71 220 -753 440 -1515 238 -821 411 -1402 426 -1426 28
-50 74 -90 129 -115 38 -18 147 -19 2696 -19 2920 0 2697 -5 2780 60 23 19 51
56 70 96 29 58 31 70 27 133 -8 106 -68 192 -166 239 -35 16 -186 17 -2566 22
l-2530 5 -108 370 c-59 204 -108 376 -108 382 0 10 530 13 2558 15 l2557 3 57
28 c61 30 96 65 131 131 30 57 30 174 1 231 l-21 40 481 1422 c474 1400 481
1422 512 1436 119 58 181 202 139 327 -21 62 -80 132 -140 163 l-40 22 -3674
5 -3674 5 -177 610 c-97 336 -186 629 -198 651 -29 56 -95 111 -156 129 -74
22 -1467 21 -1540 -1z m3615 -1946 c0 -2 31 -241 68 -531 46 -359 64 -530 57
-533 -6 -2 -278 -3 -605 -2 l-595 3 -153 525 c-84 289 -152 528 -153 533 0 6
1379 11 1381 5z m1659 -518 c0 -286 -3 -527 -6 -535 -5 -13 -69 -15 -479 -15
-288 0 -476 4 -480 9 -5 10 -135 1008 -135 1044 0 16 33 17 550 17 l550 0 0
-520z m1644 503 c-2 -10 -31 -236 -64 -503 -34 -267 -63 -500 -66 -517 l-6
-33 -479 0 -479 0 0 535 0 535 549 0 c518 0 549 -1 545 -17z m1756 -482 c-93
-274 -175 -514 -184 -535 l-15 -36 -564 0 c-310 0 -566 2 -569 5 -3 3 124
1037 131 1063 1 1 309 2 685 2 l685 0 -169 -499z m-4850 -1133 c1 -7 31 -249
69 -538 37 -289 66 -528 64 -532 -6 -12 -931 -10 -938 1 -5 9 -315 1068 -315
1077 0 2 252 4 560 4 441 0 560 -3 560 -12z m1440 -533 l0 -545 -374 0 -374 0
-6 28 c-3 15 -33 245 -66 512 -33 267 -63 500 -66 518 l-6 32 446 0 446 0 0
-545z m1446 508 c-3 -21 -33 -252 -66 -513 -33 -261 -62 -490 -65 -507 l-6
-33 -374 0 -375 0 0 545 0 545 446 0 446 0 -6 -37z m1579 20 c-3 -10 -85 -254
-183 -543 l-178 -525 -397 -3 -397 -2 0 22 c0 13 29 253 65 533 36 281 65 516
65 523 0 9 110 12 516 12 486 0 515 -1 509 -17z"/>
<path d="M4140 1460 c-313 -83 -539 -365 -557 -695 -7 -130 12 -222 71 -340
77 -155 196 -272 351 -346 123 -59 190 -74 335 -73 110 0 135 3 205 28 317
109 531 420 512 745 -18 314 -224 573 -532 671 -103 32 -283 37 -385 10z"/>
<path d="M7450 1460 c-313 -83 -539 -365 -557 -695 -7 -130 12 -222 71 -340
77 -155 196 -272 351 -346 123 -59 190 -74 335 -73 110 0 135 3 205 28 317
109 531 420 512 745 -18 314 -224 573 -532 671 -103 32 -283 37 -385 10z"/>
</g>
</svg>
