<?xml version="1.0" standalone="no"?>
<!DOCTYPE svg PUBLIC "-//W3C//DTD SVG 20010904//EN"
 "http://www.w3.org/TR/2001/REC-SVG-20010904/DTD/svg10.dtd">
<svg version="1.0" xmlns="http://www.w3.org/2000/svg"
 width="512.000000pt" height="512.000000pt" viewBox="0 0 512.000000 512.000000"
 preserveAspectRatio="xMidYMid meet">

<g transform="translate(0.000000,512.000000) scale(0.100000,-0.100000)"
fill="#000000" stroke="none">
<path d="M2730 4179 c-311 -187 -572 -344 -581 -349 -11 -6 -58 17 -174 86
-87 52 -169 94 -182 94 -29 0 -1757 -1032 -1778 -1063 -12 -18 -15 -62 -15
-260 l0 -239 29 -29 c16 -16 39 -29 51 -29 13 0 55 18 95 40 40 22 75 40 79
40 3 0 6 -306 6 -680 l0 -680 935 0 934 0 3 484 3 484 24 26 24 26 377 0 377
0 24 -26 24 -26 3 -484 3 -484 910 0 910 0 24 25 25 24 0 911 c0 642 3 910 11
910 6 0 41 -18 78 -40 37 -22 77 -40 90 -40 12 0 36 13 52 29 l29 29 0 241 0
241 -27 29 c-16 16 -412 259 -881 540 -656 393 -861 511 -885 511 -24 -1 -180
-90 -597 -341z m1283 -679 l676 -405 1 -737 0 -738 -85 0 -85 0 0 488 0 489
-26 24 -26 24 -341 3 c-188 2 -357 0 -376 -3 -18 -4 -44 -17 -57 -30 l-24 -24
0 -486 0 -485 -170 0 -170 0 0 425 c0 234 3 425 6 425 3 0 36 -18 73 -40 76
-45 107 -49 145 -19 l26 20 0 251 c0 225 -2 253 -17 271 -10 10 -217 138 -461
285 -243 146 -439 269 -435 273 16 15 658 398 664 396 4 -1 311 -184 682 -407z
m-1407 -162 l804 -483 0 -113 c0 -104 -1 -112 -17 -103 -10 5 -367 219 -793
475 -593 357 -782 466 -806 466 -25 0 -218 -111 -824 -475 -435 -261 -793
-475 -796 -475 -2 0 -4 51 -4 113 l1 112 802 482 c441 265 808 482 816 482 7
1 375 -216 817 -481z m1744 -1458 l0 -600 -255 0 -255 0 0 600 0 600 255 0
255 0 0 -600z m-2411 564 c20 -26 21 -37 21 -425 0 -341 2 -399 14 -399 8 0
27 -11 42 -24 36 -30 39 -86 6 -119 l-23 -22 -703 -3 c-458 -1 -713 1 -730 8
-16 6 -33 24 -42 45 -19 46 -3 83 43 105 l33 15 0 398 0 398 25 24 24 25 635
0 635 0 20 -26z m1731 -1079 l0 -85 -170 0 -170 0 0 85 0 85 170 0 170 0 0
-85z m1020 0 l0 -85 -85 0 -85 0 0 85 0 85 85 0 85 0 0 -85z"/>
<path d="M4040 1935 c-31 -33 -32 -87 -3 -117 27 -26 114 -36 168 -18 27 9 41
21 51 46 15 37 11 58 -19 92 -18 19 -30 22 -97 22 -69 0 -79 -3 -100 -25z"/>
<path d="M770 2175 l0 -125 215 0 215 0 0 125 0 125 -215 0 -215 0 0 -125z"/>
<path d="M1370 2175 l0 -125 210 0 210 0 0 125 0 125 -210 0 -210 0 0 -125z"/>
<path d="M770 1750 l0 -130 213 2 212 3 0 125 0 125 -212 3 -213 2 0 -130z"/>
<path d="M1370 1750 l0 -130 210 0 210 0 0 130 0 130 -210 0 -210 0 0 -130z"/>
<path d="M2300 1280 l0 -680 260 0 260 0 0 680 0 680 -260 0 -260 0 0 -680z
m398 150 c46 -43 37 -109 -18 -137 -57 -29 -178 -8 -194 32 -13 35 -6 76 19
100 21 22 33 25 98 25 60 0 77 -4 95 -20z"/>
<path d="M260 795 c0 -142 1 -147 25 -170 l24 -25 911 0 910 0 0 170 0 170
-935 0 -935 0 0 -145z"/>
<path d="M2990 770 l0 -170 143 0 c196 1 197 2 197 204 l0 136 -170 0 -170 0
0 -170z"/>
</g>
</svg>
