<?xml version="1.0" standalone="no"?>
<!DOCTYPE svg PUBLIC "-//W3C//DTD SVG 20010904//EN"
 "http://www.w3.org/TR/2001/REC-SVG-20010904/DTD/svg10.dtd">
<svg version="1.0" xmlns="http://www.w3.org/2000/svg"
 width="512.000000pt" height="512.000000pt" viewBox="0 0 512.000000 512.000000"
 preserveAspectRatio="xMidYMid meet">

<g transform="translate(0.000000,512.000000) scale(0.100000,-0.100000)"
fill="#000000" stroke="none">
<path d="M2346 4629 c-814 -86 -1506 -643 -1760 -1419 -142 -432 -140 -880 4
-1312 332 -995 1364 -1587 2393 -1373 991 205 1696 1107 1654 2115 -23 531
-233 1013 -607 1390 -433 437 -1071 664 -1684 599z m402 -320 c412 -45 784
-227 1072 -526 144 -148 224 -260 314 -440 244 -484 245 -1075 4 -1556 -27
-56 -52 -104 -54 -106 -2 -2 -45 30 -96 72 -338 273 -737 436 -1173 478 -176
17 -528 7 -680 -20 -376 -67 -696 -212 -993 -450 -57 -46 -105 -82 -107 -80
-19 20 -114 234 -145 329 -186 567 -74 1184 300 1655 68 85 232 242 320 307
262 191 566 308 890 341 79 8 257 6 348 -4z m70 -2400 c393 -42 715 -187 1042
-468 l35 -30 -80 -81 c-148 -150 -288 -252 -471 -343 -669 -334 -1470 -210
-2002 309 l-117 114 45 41 c54 49 205 162 275 207 192 120 493 222 743 252
102 11 420 11 530 -1z"/>
<path d="M2410 3986 c-187 -40 -340 -130 -460 -271 -227 -268 -252 -656 -60
-948 278 -426 876 -490 1235 -132 358 359 294 957 -132 1235 -75 50 -143 79
-243 107 -78 21 -260 26 -340 9z m265 -321 c256 -67 415 -329 350 -578 -45
-173 -178 -307 -350 -352 -251 -65 -513 94 -580 350 -89 343 237 669 580 580z"/>
</g>
</svg>
