<?xml version="1.0" standalone="no"?>
<!DOCTYPE svg PUBLIC "-//W3C//DTD SVG 20010904//EN"
 "http://www.w3.org/TR/2001/REC-SVG-20010904/DTD/svg10.dtd">
<svg version="1.0" xmlns="http://www.w3.org/2000/svg"
 width="1200.000000pt" height="1200.000000pt" viewBox="0 0 1200.000000 1200.000000"
 preserveAspectRatio="xMidYMid meet">

<g transform="translate(0.000000,1200.000000) scale(0.100000,-0.100000)"
fill="#000000" stroke="none">
<path d="M5400 9887 c-37 -19 -220 -229 -1063 -1220 l-1018 -1197 -315 0
c-353 0 -417 -8 -539 -64 -178 -83 -303 -230 -354 -416 -19 -66 -21 -103 -21
-315 0 -274 6 -310 72 -444 69 -143 205 -260 364 -316 51 -18 71 -30 76 -47 4
-13 145 -723 313 -1578 168 -855 311 -1577 319 -1605 76 -280 304 -502 590
-575 78 -20 104 -20 2223 -20 2403 0 2208 -6 2378 75 50 23 139 79 198 123 91
69 119 84 185 102 149 41 325 126 472 229 102 71 297 272 369 380 112 169 189
349 232 544 29 130 37 407 16 543 -52 322 -192 605 -416 837 -57 59 -189 175
-208 181 0 1 29 178 66 395 l67 393 55 17 c159 50 305 174 377 321 66 135 72
171 72 445 0 212 -2 249 -21 315 -65 238 -257 415 -501 464 -60 13 -146 16
-392 16 l-315 0 -1018 1197 c-1124 1321 -1049 1242 -1172 1243 -104 0 -189
-55 -228 -148 -23 -54 -19 -146 9 -198 13 -25 412 -502 888 -1061 476 -559
867 -1020 868 -1025 2 -4 -911 -8 -2028 -8 -1117 0 -2030 4 -2028 8 2 5 392
466 868 1025 476 560 875 1036 888 1060 20 36 23 53 20 119 -3 66 -7 82 -33
119 -17 24 -50 57 -74 74 -37 26 -53 30 -119 33 -65 2 -84 -1 -122 -21z m3917
-2918 c35 -13 70 -45 91 -84 14 -25 17 -62 17 -216 0 -184 0 -186 -27 -226
-14 -22 -42 -47 -61 -56 -32 -16 -284 -17 -3337 -17 -3053 0 -3305 1 -3337 17
-19 9 -47 34 -61 56 -27 40 -27 43 -27 216 0 97 3 188 7 203 11 37 56 88 93
104 25 11 607 13 3322 14 2308 0 3300 -3 3320 -11z m-417 -1106 c0 -15 -81
-524 -84 -530 -1 -1 -56 9 -121 24 -156 33 -414 37 -570 9 -621 -112 -1097
-572 -1237 -1197 -20 -90 -23 -131 -23 -309 0 -224 9 -288 67 -470 96 -301
302 -587 553 -765 l70 -50 -1755 -3 c-1183 -2 -1777 1 -1823 8 -38 6 -83 18
-100 26 -46 24 -126 104 -149 147 -13 26 -122 562 -319 1561 -164 836 -301
1531 -304 1544 l-5 22 2900 0 c2755 0 2900 -1 2900 -17z m-360 -978 c439 -67
782 -397 866 -835 20 -100 19 -284 -1 -390 -75 -390 -369 -702 -763 -807 -85
-23 -116 -26 -257 -26 -142 0 -171 3 -259 26 -365 98 -648 380 -748 747 -20
75 -23 107 -22 265 0 167 2 187 27 270 77 255 223 454 432 591 221 144 468
199 725 159z"/>
<path d="M4357 5259 c-56 -13 -90 -34 -127 -75 -43 -50 -62 -97 -62 -158 0
-56 234 -1593 254 -1666 15 -54 77 -126 133 -151 50 -23 142 -25 193 -3 73 30
135 110 148 191 6 38 -235 1641 -257 1709 -33 104 -173 180 -282 153z"/>
<path d="M5947 5259 c-78 -18 -143 -74 -173 -145 -21 -51 -21 -1726 1 -1777
51 -123 203 -182 325 -126 58 26 87 53 116 111 l24 47 0 856 c0 703 -2 861
-14 889 -44 105 -171 171 -279 145z"/>
<path d="M8017 4396 c-65 -18 -116 -61 -150 -127 -25 -47 -28 -62 -24 -119 5
-84 22 -114 114 -211 l75 -79 -74 -79 c-87 -92 -110 -135 -116 -212 -8 -111
64 -213 174 -245 104 -30 177 -2 294 112 l76 74 68 -69 c115 -116 196 -147
302 -116 114 33 184 138 171 259 -7 73 -26 104 -114 197 l-76 79 76 79 c89 91
117 143 117 221 0 137 -104 243 -240 243 -78 0 -132 -27 -225 -115 l-80 -76
-77 74 c-42 40 -94 82 -115 92 -53 27 -119 34 -176 18z"/>
</g>
</svg>
