<?xml version="1.0" standalone="no"?>
<!DOCTYPE svg PUBLIC "-//W3C//DTD SVG 20010904//EN"
 "http://www.w3.org/TR/2001/REC-SVG-20010904/DTD/svg10.dtd">
<svg version="1.0" xmlns="http://www.w3.org/2000/svg"
 width="30.000000pt" height="31.000000pt" viewBox="0 0 30.000000 31.000000"
 preserveAspectRatio="xMidYMid meet">

<g transform="translate(0.000000,31.000000) scale(0.100000,-0.100000)"
fill="#000000" stroke="none">
<path d="M229 273 c-19 -21 -49 -62 -68 -90 -35 -56 -45 -63 -55 -38 -7 19
-35 20 -42 1 -8 -21 23 -86 41 -86 8 0 30 21 48 47 17 25 52 73 77 105 78 103
75 98 52 98 -11 0 -35 -17 -53 -37z"/>
<path d="M73 270 c-120 -73 -79 -253 60 -267 106 -11 186 99 147 201 -5 14
-15 26 -21 26 -7 0 -8 -7 -3 -17 16 -38 16 -103 -1 -129 -37 -57 -108 -78
-166 -49 -63 33 -86 112 -49 172 30 50 62 66 120 61 49 -5 66 4 34 16 -31 12
-90 6 -121 -14z"/>
</g>
</svg>
