<?xml version="1.0" standalone="no"?>
<!DOCTYPE svg PUBLIC "-//W3C//DTD SVG 20010904//EN"
 "http://www.w3.org/TR/2001/REC-SVG-20010904/DTD/svg10.dtd">
<svg version="1.0" xmlns="http://www.w3.org/2000/svg"
 width="40.000000pt" height="40.000000pt" viewBox="0 0 40.000000 40.000000"
 preserveAspectRatio="xMidYMid meet">

<g transform="translate(0.000000,40.000000) scale(0.100000,-0.100000)"
fill="#000000" stroke="none">
<path d="M83 363 c-10 -3 -13 -46 -13 -163 0 -135 2 -159 16 -164 20 -8 208
-8 228 0 12 4 16 20 16 56 0 44 -2 49 -15 38 -8 -7 -15 -23 -15 -36 0 -24 -1
-24 -100 -24 l-100 0 0 130 0 130 100 0 c99 0 100 0 100 -24 0 -13 7 -29 15
-36 13 -11 15 -6 15 38 0 36 -4 52 -16 56 -19 7 -213 7 -231 -1z"/>
<path d="M270 241 c0 -18 -6 -21 -45 -21 -38 0 -45 -3 -45 -20 0 -17 7 -20 45
-20 39 0 45 -3 45 -21 0 -19 2 -19 35 7 19 14 35 30 35 34 0 4 -16 20 -35 34
-33 26 -35 26 -35 7z"/>
</g>
</svg>
