<?xml version="1.0" standalone="no"?>
<!DOCTYPE svg PUBLIC "-//W3C//DTD SVG 20010904//EN"
 "http://www.w3.org/TR/2001/REC-SVG-20010904/DTD/svg10.dtd">
<svg version="1.0" xmlns="http://www.w3.org/2000/svg"
 width="600.000000pt" height="600.000000pt" viewBox="0 0 600.000000 600.000000"
 preserveAspectRatio="xMidYMid meet">

<g transform="translate(0.000000,600.000000) scale(0.100000,-0.100000)"
fill="#000000" stroke="none">
<path d="M2770 5859 c-374 -27 -722 -127 -1094 -317 -259 -132 -468 -282 -661
-476 -430 -431 -714 -1004 -801 -1611 -26 -179 -26 -569 -1 -735 96 -615 367
-1169 772 -1576 431 -432 983 -711 1596 -805 191 -30 552 -32 734 -5 720 105
1353 450 1775 967 210 258 347 491 465 794 127 326 185 639 185 995 0 448 -92
834 -294 1225 -250 486 -536 816 -933 1078 -412 272 -880 432 -1364 466 -160
12 -211 12 -379 0z m1502 -1690 c37 -27 58 -74 58 -133 0 -59 -465 -2248 -490
-2303 -35 -79 -115 -102 -201 -57 -22 11 -602 435 -705 516 -7 5 -71 -50 -185
-160 -174 -168 -220 -204 -271 -217 -27 -7 -28 -6 -28 33 0 22 11 183 25 358
18 224 29 322 38 329 13 10 564 513 1052 960 132 122 240 227 240 235 0 9 -12
16 -30 18 -25 2 -174 -88 -847 -511 l-816 -514 -374 114 c-205 63 -383 121
-395 129 -17 11 -23 24 -23 51 0 58 45 92 212 156 177 69 2300 889 2493 963
155 59 201 65 247 33z"/>
</g>
</svg>
